<svg width="55" height="55" viewBox="0 0 55 55" fill="none" xmlns="http://www.w3.org/2000/svg">
<path d="M27.5 0C42.6877 0.000211037 55 12.3123 55 27.5C55 42.6877 42.6877 54.9998 27.5 55C12.3122 55 0 42.6878 0 27.5C0 12.3122 12.3122 0 27.5 0ZM27.5 2C13.4167 2 2 13.4167 2 27.5C2 41.5833 13.4167 53 27.5 53C41.5831 52.9998 53 41.5831 53 27.5C53 13.4169 41.5831 2.00021 27.5 2ZM12.123 17.6338C12.665 17.6338 13.1074 18.0879 13.1074 18.6152V31.4385H24.041L27.1611 20.4697H39.4219C42.4893 20.4697 45 22.9863 45 26.0479V31.626H44.9941L45 31.7344V40.667H40.8926V36.4775H13.1074V40.4795H9V18.6152C9 18.0732 9.44238 17.6338 9.98438 17.6338H12.123ZM19.3828 20.6689C21.9082 20.6689 23.9561 22.7168 23.9561 25.2422C23.9556 27.7672 21.908 29.8154 19.3828 29.8154C16.8577 29.8154 14.81 27.7672 14.8096 25.2422C14.8096 22.7168 16.8545 20.669 19.3828 20.6689ZM23.335 8.15039C22.5354 8.95017 22.04 10.0578 22.04 11.2764C22.0405 13.7164 24.0178 15.6973 26.4609 15.6973C27.659 15.7002 28.7432 15.2254 29.54 14.4551C29.3877 15.0378 29.1356 15.5891 28.7959 16.0781C28.0693 17.1325 26.95 17.9209 25.5967 18.1963C24.2024 18.4833 22.8251 18.1785 21.7236 17.4521C20.6223 16.7286 19.799 15.5827 19.5117 14.1885C19.2334 12.8293 19.5178 11.4843 20.2031 10.4004C20.8945 9.30767 21.9903 8.48148 23.335 8.15039Z" fill="black"/>
</svg>
