<svg width="55" height="55" viewBox="0 0 55 55" fill="none" xmlns="http://www.w3.org/2000/svg">
<path d="M27.5 0C42.6878 7.21568e-05 55 12.3122 55 27.5C55 42.6878 42.6878 54.9999 27.5 55C12.3122 55 0 42.6878 0 27.5C0 12.3122 12.3122 0 27.5 0ZM27.5 2C13.4167 2 2 13.4167 2 27.5C2 41.5833 13.4167 53 27.5 53C41.5832 52.9999 53 41.5832 53 27.5C53 13.4168 41.5832 2.00007 27.5 2ZM27 12.1494C27.3888 12.1494 27.7706 12.1636 28.1455 12.1914C28.5205 12.2192 28.8889 12.2609 29.25 12.3164C28.1112 13.1219 27.201 14.1704 26.5205 15.4619C25.84 16.7534 25.5001 18.1496 25.5 19.6494C25.5 22.1493 26.3752 24.2745 28.125 26.0244C29.875 27.7744 32 28.6504 34.5 28.6504C36.0277 28.6504 37.4303 28.3094 38.708 27.6289C39.9858 26.9484 41.0275 26.0383 41.833 24.8994C41.8886 25.2605 41.9302 25.629 41.958 26.0039C41.9858 26.3787 42 26.7607 42 27.1494C42 31.316 40.5415 34.8578 37.625 37.7744C34.7083 40.6911 31.1667 42.1494 27 42.1494C22.8333 42.1494 19.2917 40.6911 16.375 37.7744C13.4585 34.8578 12 31.316 12 27.1494C12.0001 22.983 13.4584 19.441 16.375 16.5244C19.2916 13.6079 22.8335 12.1494 27 12.1494ZM22.625 16.3164C20.4584 17.2053 18.7017 18.6221 17.3545 20.5664C16.0074 22.5107 15.3331 24.7052 15.333 27.1494C15.333 30.3715 16.4724 33.1217 18.75 35.3994C21.0278 37.6772 23.7778 38.8164 27 38.8164C29.4443 38.8164 31.6386 38.143 33.583 36.7959C35.5275 35.4487 36.9441 33.6911 37.833 31.5244C37.2776 31.6633 36.7224 31.7751 36.167 31.8584C35.6114 31.9417 35.0556 31.9834 34.5 31.9834C31.0833 31.9834 28.1733 30.7817 25.7705 28.3789C23.3679 25.9762 22.167 23.066 22.167 19.6494C22.167 19.0941 22.2087 18.5388 22.292 17.9834C22.3753 17.4278 22.4861 16.872 22.625 16.3164Z" fill="black"/>
</svg>
