<svg width="55" height="55" viewBox="0 0 55 55" fill="none" xmlns="http://www.w3.org/2000/svg">
<path d="M27.5 0C42.6877 0.000211037 55 12.3123 55 27.5C55 42.6877 42.6877 54.9998 27.5 55C12.3122 55 0 42.6878 0 27.5C0 12.3122 12.3122 0 27.5 0ZM27.5 2C13.4167 2 2 13.4167 2 27.5C2 41.5833 13.4167 53 27.5 53C41.5831 52.9998 53 41.5831 53 27.5C53 13.4169 41.5831 2.00021 27.5 2ZM23.752 28.418C23.8837 28.4428 25.5013 30.2032 25.5557 30.3223C25.6204 30.462 25.6449 30.5566 25.5508 30.6934C23.4336 33.2093 21.4927 35.8855 19.374 38.3955C18.684 39.2136 17.9114 40.2243 17.1699 40.9629C15.8354 42.2915 13.4442 44.218 11.6934 42.3936C9.68944 40.3057 12.5138 37.613 14.0322 36.2344C17.097 33.4521 20.565 31.059 23.752 28.418ZM15.9121 13.4883C15.5016 12.5364 16.2976 11.802 17.1523 12.374C18.7855 14.0455 20.5854 15.5655 22.2451 17.2061C24.0828 19.0232 26.0836 20.3402 25.7275 23.2402C25.6422 23.9303 25.0554 24.563 25.5586 25.2207C29.6459 29.2153 34.5524 32.5041 38.7236 36.3604C40.0831 37.6183 43.2804 40.5945 41.4463 42.5205C39.5615 44.4995 36.4714 41.2199 35.2207 39.8633C31.3703 35.6832 28.0757 30.79 24.0811 26.6982C23.4234 26.1965 22.7907 26.7818 22.1006 26.8672C20.9118 27.0143 19.7108 26.7683 18.7529 26.043C16.1429 24.0654 13.7782 20.4724 11.2344 18.292C10.9494 17.9877 10.9767 17.3907 11.2656 17.1152C11.5295 16.8672 12.2207 16.9034 12.5 17.1533L18.8047 23.4463C19.5874 24.1378 20.6141 23.2024 20.0156 22.3652L13.4199 15.5908C13.2478 14.7639 14.0115 14.2736 14.7178 14.6826L21.2168 21.1631C22.0141 21.6231 22.9366 20.9255 22.4395 20.0664L15.9121 13.4883ZM36.7891 12.1514C44.3871 12.0263 43.1335 23.2819 35.6943 24.6855C33.9361 25.0165 31.8339 24.6844 30.2803 25.6348C29.8169 25.9187 29.5359 26.319 29.1211 26.625L27.3965 25.0391C29.6711 23.5251 29.0206 20.7719 29.4678 18.459C30.1181 15.0969 33.3069 12.2087 36.7881 12.1514H36.7891Z" fill="black"/>
</svg>
