<svg width="55" height="55" viewBox="0 0 55 55" fill="none" xmlns="http://www.w3.org/2000/svg">
<path d="M27.5 0C42.6877 0.000211037 55 12.3123 55 27.5C55 42.6877 42.6877 54.9998 27.5 55C12.3122 55 0 42.6878 0 27.5C0 12.3122 12.3122 0 27.5 0ZM27.5 2C13.4167 2 2 13.4167 2 27.5C2 41.5833 13.4167 53 27.5 53C41.5831 52.9998 53 41.5831 53 27.5C53 13.4169 41.5831 2.00021 27.5 2ZM25.4639 8.90039C27.363 9.70394 29.1084 10.9032 30.4746 12.375V12.3721C32.3372 14.3747 33.1158 16.724 32.8154 19.4023C32.6273 21.0758 31.3392 23.0614 32.2666 24.7324C33.0451 26.133 35.0226 25.8015 35.9814 24.7744C36.4935 24.2264 36.669 23.4986 37.0479 22.8818C45.1726 30.3964 39.9471 43.4007 28.8623 44.7842C18.0807 46.1307 9.27928 35.4466 14.5928 26.1973C16.7951 22.3614 20.6409 19.8645 23.5225 16.584C25.4452 14.3946 26.9578 11.704 25.4639 8.90039Z" fill="black"/>
</svg>
