<svg width="55" height="55" viewBox="0 0 55 55" fill="none" xmlns="http://www.w3.org/2000/svg">
<path d="M27.5 0C42.6878 0 55 12.3122 55 27.5C55 42.6878 42.6878 55 27.5 55C12.3124 54.9998 0 42.6877 0 27.5C0 12.3123 12.3124 0.000221893 27.5 0ZM27.5 2C13.4169 2.00022 2 13.4169 2 27.5C2 41.5831 13.4169 52.9998 27.5 53C41.5833 53 53 41.5833 53 27.5C53 13.4167 41.5833 2 27.5 2ZM27.5 9.90039C28.3483 9.90057 29.036 10.5882 29.0361 11.4365V13.1875C29.443 13.7932 30.1092 14.3697 30.9922 14.8623C32.7621 15.8498 35.141 16.3935 37.6895 16.3936C38.2128 16.3938 38.5626 16.7804 38.7939 17.2217C39.0118 17.6375 43.1816 25.5713 43.1816 25.5713H44.3867C44.5589 25.5713 44.7239 25.6443 44.8398 25.7715C44.9554 25.8987 45.0128 26.0691 44.9971 26.2402C44.6591 29.9045 41.5766 32.7742 37.8242 32.7744C34.0716 32.7744 30.9882 29.9046 30.6504 26.2402C30.6346 26.0688 30.6918 25.8978 30.8076 25.7705C30.9236 25.6432 31.0885 25.5713 31.2607 25.5713H32.4658L36.1064 18.6357C33.2703 18.4084 30.794 17.5757 29.0361 16.3535V41.5957H35.7041C36.7648 41.5957 37.625 42.4559 37.625 43.5166C37.6245 44.5768 36.7645 45.4365 35.7041 45.4365H19C17.9397 45.4365 17.0796 44.5768 17.0791 43.5166C17.0791 42.456 17.9394 41.5958 19 41.5957H25.9629V16.3535C24.2051 17.5755 21.7295 18.4083 18.8936 18.6357L22.5342 25.5713H23.7393C23.9113 25.5714 24.0755 25.6443 24.1914 25.7715C24.3071 25.8987 24.3644 26.069 24.3486 26.2402C24.0107 29.9046 20.9283 32.7744 17.1758 32.7744C13.4232 32.7744 10.3409 29.9046 10.0029 26.2402C9.98719 26.0688 10.0443 25.8978 10.1602 25.7705C10.2761 25.6434 10.4403 25.5713 10.6123 25.5713H11.8174C11.8174 25.5713 15.5822 18.4078 16.2051 17.2217C16.4711 16.715 16.787 16.3936 17.3105 16.3936C19.859 16.3935 22.2378 15.8497 24.0078 14.8623C24.8905 14.3698 25.5561 13.793 25.9629 13.1875V11.4365C25.963 10.5881 26.6516 9.90044 27.5 9.90039ZM14.4199 25.5713H19.9307L17.1758 20.3213L14.4199 25.5713ZM35.0684 25.5713H40.5791L37.8232 20.3213L35.0684 25.5713Z" fill="black"/>
</svg>
