<svg width="56" height="56" viewBox="0 0 56 56" fill="none" xmlns="http://www.w3.org/2000/svg">
<path d="M28 0C43.4393 0 56 12.5607 56 28C55.9998 43.4392 43.4392 56 28 56C12.5608 56 0.00016438 43.4392 0 28C1.6165e-08 12.5607 12.5607 1.61642e-08 28 0ZM28 1.63574C13.4627 1.63574 1.63574 13.4627 1.63574 28C1.63591 42.5372 13.4628 54.3643 28 54.3643C42.5372 54.3643 54.3641 42.5372 54.3643 28C54.3643 13.4627 42.5373 1.63574 28 1.63574ZM43.3174 37.9629C43.4128 37.8169 43.6101 37.7758 43.7578 37.8711C43.9041 37.9665 43.945 38.1637 43.8496 38.3115C41.7578 41.5128 38.7776 43.9733 35.2314 45.4277C32.9297 46.372 30.4973 46.8496 28.0557 46.8496H28.0547C26.9745 46.8496 25.893 46.7551 24.8193 46.5674L24.9629 49.4717C23.9916 47.9059 22.1851 46.1563 20.6543 44.9863C22.5777 44.8766 25.0549 44.4411 26.7383 43.6924L25.0312 45.959C32.0995 47.1452 39.3806 43.9876 43.3174 37.9629ZM11.0361 20.5635C11.1458 22.4869 11.5814 24.9641 12.3301 26.6475L10.0625 24.9414C8.87826 32.0083 12.0371 39.2876 18.0605 43.2236C18.2068 43.319 18.2477 43.5162 18.1523 43.6641C18.092 43.7578 17.9906 43.8086 17.8857 43.8086C17.8253 43.8086 17.766 43.7924 17.7119 43.7559C14.5108 41.664 12.0501 38.6838 10.5957 35.1377C9.23463 31.8187 8.84386 28.2324 9.45605 24.7285L6.5498 24.8721C8.11556 23.9008 9.86619 22.0943 11.0361 20.5635ZM28.7744 25.7549H35.4834L26.8545 41.4648L27.3125 30.623H20.6035L29.2324 14.9131L28.7744 25.7549ZM37.9619 12.2666C38.0573 12.1204 38.2545 12.0785 38.4023 12.1738C41.6038 14.2657 44.0641 17.2466 45.5186 20.793C46.8795 24.1118 47.2703 27.6974 46.6582 31.2012L49.5645 31.0596C47.9988 32.0308 46.249 33.8365 45.0791 35.3672C44.9694 33.4439 44.5338 30.9675 43.7852 29.2842L46.0518 30.9893C47.2362 23.9223 44.0782 16.6422 38.0547 12.7061C37.9086 12.6108 37.8669 12.4144 37.9619 12.2666ZM31.1504 6.45801C32.1216 8.02361 33.9273 9.77344 35.458 10.9434C33.5347 11.0531 31.0583 11.4887 29.375 12.2373L31.082 9.96777C24.013 8.78236 16.7334 11.9406 12.7969 17.9648C12.7365 18.0585 12.6351 18.1094 12.5303 18.1094V18.1113C12.47 18.1113 12.4114 18.095 12.3574 18.0586C12.2112 17.9632 12.1693 17.766 12.2646 17.6182C14.3566 14.4167 17.3374 11.9564 20.8838 10.502C24.2026 9.14099 27.7883 8.74968 31.292 9.36035L31.1504 6.45801Z" fill="black"/>
</svg>
